<svg xmlns="http://www.w3.org/2000/svg" width="480" height="230" viewBox="0 0 480 230" role="img" aria-labelledby="t d">
<title id="t">Números no GitHub</title>
<desc id="d">Contribuições no último ano: 329, Commits no último ano: 291, Pull requests: 32, Estrelas recebidas: 18, Repositórios públicos: 9, Seguidores: 17</desc>
<style>
text { font-family: 'Segoe UI', -apple-system, BlinkMacSystemFont, 'Helvetica Neue', Helvetica, Arial, sans-serif; }
.mono { font-family: ui-monospace, SFMono-Regular, 'SF Mono', 'Cascadia Code', Menlo, Consolas, 'Liberation Mono', monospace; }
.fade-up { opacity: 0; animation: fade-up .6s cubic-bezier(.2,.7,.2,1) forwards; }
@keyframes fade-up { from { opacity: 0; transform: translateY(8px); } to { opacity: 1; transform: none; } }

@media (prefers-reduced-motion: reduce) { *, *::before, *::after { animation: none !important; opacity: 1 !important; } }
</style>
<defs></defs>
<rect x=".5" y=".5" width="479" height="229" rx="12" fill="#161b22" stroke="#30363d"/>
<text x="24" y="40" font-size="17" font-weight="600" fill="#e6edf3">Números no GitHub</text>
<text x="456" y="40" text-anchor="end" class="mono" font-size="12.5" fill="#8b949e">@caio-kenai</text>
<g class="fade-up" style="animation-delay:0.10s">
  <rect x="24" y="68" width="36" height="36" rx="9" fill="#7aa2f7" fill-opacity=".14"/>
  <path transform="translate(34 78) scale(1)" d="M6 2c.306 0 .582.187.696.471L10 10.731l1.304-3.26A.751.751 0 0 1 12 7h3.25a.75.75 0 0 1 0 1.5h-2.742l-1.812 4.528a.751.751 0 0 1-1.392 0L6 4.77 4.696 8.03A.75.75 0 0 1 4 8.5H.75a.75.75 0 0 1 0-1.5h2.742l1.812-4.529A.751.751 0 0 1 6 2Z" fill="#7aa2f7"/>
  <text x="72" y="82" font-size="12.5" fill="#8b949e">Contribuições no último ano</text>
  <text x="72" y="102" font-size="20" font-weight="700" fill="#e6edf3">329</text>
</g>
<g class="fade-up" style="animation-delay:0.18s">
  <rect x="250" y="68" width="36" height="36" rx="9" fill="#bb9af7" fill-opacity=".14"/>
  <path transform="translate(260 78) scale(1)" d="M11.93 8.5a4.002 4.002 0 0 1-7.86 0H.75a.75.75 0 0 1 0-1.5h3.32a4.002 4.002 0 0 1 7.86 0h3.32a.75.75 0 0 1 0 1.5Zm-1.43-.75a2.5 2.5 0 1 0-5 0 2.5 2.5 0 0 0 5 0Z" fill="#bb9af7"/>
  <text x="298" y="82" font-size="12.5" fill="#8b949e">Commits no último ano</text>
  <text x="298" y="102" font-size="20" font-weight="700" fill="#e6edf3">291</text>
</g>
<g class="fade-up" style="animation-delay:0.26s">
  <rect x="24" y="120" width="36" height="36" rx="9" fill="#9ece6a" fill-opacity=".14"/>
  <path transform="translate(34 130) scale(1)" d="M1.5 3.25a2.25 2.25 0 1 1 3 2.122v5.256a2.251 2.251 0 1 1-1.5 0V5.372A2.25 2.25 0 0 1 1.5 3.25Zm5.677-.177L9.573.677A.25.25 0 0 1 10 .854V2.5h1A2.5 2.5 0 0 1 13.5 5v5.628a2.251 2.251 0 1 1-1.5 0V5a1 1 0 0 0-1-1h-1v1.646a.25.25 0 0 1-.427.177L7.177 3.427a.25.25 0 0 1 0-.354ZM3.75 2.5a.75.75 0 1 0 0 1.5.75.75 0 0 0 0-1.5Zm0 9.5a.75.75 0 1 0 0 1.5.75.75 0 0 0 0-1.5Zm8.25.75a.75.75 0 1 0 1.5 0 .75.75 0 0 0-1.5 0Z" fill="#9ece6a"/>
  <text x="72" y="134" font-size="12.5" fill="#8b949e">Pull requests</text>
  <text x="72" y="154" font-size="20" font-weight="700" fill="#e6edf3">32</text>
</g>
<g class="fade-up" style="animation-delay:0.34s">
  <rect x="250" y="120" width="36" height="36" rx="9" fill="#e0af68" fill-opacity=".14"/>
  <path transform="translate(260 130) scale(1)" d="M8 .25a.75.75 0 0 1 .673.418l1.882 3.815 4.21.612a.75.75 0 0 1 .416 1.279l-3.046 2.97.719 4.192a.751.751 0 0 1-1.088.791L8 12.347l-3.766 1.98a.75.75 0 0 1-1.088-.79l.72-4.194L.818 6.374a.75.75 0 0 1 .416-1.28l4.21-.611L7.327.668A.75.75 0 0 1 8 .25Z" fill="#e0af68"/>
  <text x="298" y="134" font-size="12.5" fill="#8b949e">Estrelas recebidas</text>
  <text x="298" y="154" font-size="20" font-weight="700" fill="#e6edf3">18</text>
</g>
<g class="fade-up" style="animation-delay:0.42s">
  <rect x="24" y="172" width="36" height="36" rx="9" fill="#7dcfff" fill-opacity=".14"/>
  <path transform="translate(34 182) scale(1)" d="M2 2.5A2.5 2.5 0 0 1 4.5 0h8.75a.75.75 0 0 1 .75.75v12.5a.75.75 0 0 1-.75.75h-2.5a.75.75 0 0 1 0-1.5h1.75v-2h-8a1 1 0 0 0-.714 1.7.75.75 0 1 1-1.072 1.05A2.495 2.495 0 0 1 2 11.5Zm10.5-1h-8a1 1 0 0 0-1 1v6.708A2.486 2.486 0 0 1 4.5 9h8ZM5 12.25a.25.25 0 0 1 .25-.25h3.5a.25.25 0 0 1 .25.25v3.25a.25.25 0 0 1-.4.2l-1.45-1.087a.249.249 0 0 0-.3 0L5.4 15.7a.25.25 0 0 1-.4-.2Z" fill="#7dcfff"/>
  <text x="72" y="186" font-size="12.5" fill="#8b949e">Repositórios públicos</text>
  <text x="72" y="206" font-size="20" font-weight="700" fill="#e6edf3">9</text>
</g>
<g class="fade-up" style="animation-delay:0.50s">
  <rect x="250" y="172" width="36" height="36" rx="9" fill="#ff9e64" fill-opacity=".14"/>
  <path transform="translate(260 182) scale(1)" d="M10.561 8.073a6.005 6.005 0 0 1 3.432 5.142.75.75 0 1 1-1.498.07 4.5 4.5 0 0 0-8.99 0 .75.75 0 0 1-1.498-.07 6.004 6.004 0 0 1 3.431-5.142 3.999 3.999 0 1 1 5.123 0ZM10.5 5a2.5 2.5 0 1 0-5 0 2.5 2.5 0 0 0 5 0Z" fill="#ff9e64"/>
  <text x="298" y="186" font-size="12.5" fill="#8b949e">Seguidores</text>
  <text x="298" y="206" font-size="20" font-weight="700" fill="#e6edf3">17</text>
</g>
</svg>
